<?xml version="1.0" standalone="no"?>
<!DOCTYPE svg PUBLIC "-//W3C//DTD SVG 20010904//EN"
 "http://www.w3.org/TR/2001/REC-SVG-20010904/DTD/svg10.dtd">
<svg version="1.0" xmlns="http://www.w3.org/2000/svg"
 width="587.000000pt" height="587.000000pt" viewBox="0 0 587.000000 587.000000"
 preserveAspectRatio="xMidYMid meet">
<metadata>
Created by potrace 1.11, written by Peter Selinger 2001-2013
</metadata>
<g transform="translate(0.000000,587.000000) scale(0.100000,-0.100000)"
fill="#000000" stroke="none">
<path d="M1935 5824 c-328 -32 -562 -101 -786 -231 -190 -110 -377 -279 -502
-453 -135 -191 -258 -476 -306 -715 -39 -196 -46 -274 -45 -535 1 -274 15
-412 70 -660 264 -1185 1171 -2333 2269 -2870 843 -413 1680 -424 2270 -31
121 80 172 125 80 70 -567 -340 -1329 -312 -2099 76 -217 109 -380 215 -658
425 -3 3 -9 17 -13 31 -6 22 -2 28 25 39 18 7 47 24 66 36 l33 23 11 -38 c12
-45 28 -60 83 -81 34 -13 42 -21 54 -60 7 -25 12 -60 9 -78 -4 -29 -3 -31 15
-21 29 15 41 55 30 96 -8 29 -7 34 6 31 23 -4 47 -92 33 -118 -14 -27 2 -25
28 3 26 28 29 75 6 119 -14 27 -14 43 -4 132 18 143 35 190 139 376 51 91 107
195 124 233 30 63 35 69 83 87 140 52 415 49 497 -5 16 -10 46 -44 67 -75 50
-73 122 -137 170 -150 47 -13 60 -28 66 -77 10 -76 14 -84 47 -98 38 -16 63
-74 46 -107 -12 -23 3 -24 26 -1 13 12 16 28 12 60 -3 30 -1 43 8 43 15 0 38
-75 30 -100 -9 -27 10 -25 29 2 20 28 20 51 0 90 -13 26 -14 38 -5 70 7 22 18
41 26 44 8 3 37 -2 65 -11 42 -14 54 -24 71 -57 14 -27 18 -49 14 -66 l-6 -26
21 19 c19 17 21 27 17 68 -4 26 -2 47 3 47 14 0 40 -56 40 -87 l1 -28 19 24
c25 29 25 37 0 86 l-20 39 39 76 c22 41 45 96 51 123 12 47 13 47 55 47 41 0
42 -1 95 -82 52 -80 184 -222 264 -284 38 -28 40 -33 43 -94 3 -36 9 -77 14
-91 10 -26 45 -49 74 -49 18 0 20 -55 5 -95 -9 -23 -8 -25 10 -15 31 16 50 52
50 92 0 20 5 40 11 44 8 5 10 -14 7 -65 -2 -39 -1 -71 2 -71 4 0 16 10 28 23
26 28 30 93 7 137 -14 26 -14 34 -1 58 8 15 23 36 35 46 21 19 22 19 78 -5 50
-21 62 -32 86 -76 23 -43 26 -56 17 -78 -14 -37 -8 -40 23 -11 31 29 35 70 11
105 -14 19 -14 25 -3 32 23 14 28 11 53 -38 18 -36 21 -54 15 -72 -5 -13 -7
-26 -5 -29 9 -9 56 48 56 68 0 26 -23 72 -45 90 -14 12 -12 17 24 52 56 53 71
86 87 196 8 53 28 134 44 181 42 120 53 198 40 274 -14 73 -57 171 -105 239
l-36 49 34 39 c19 21 49 67 66 103 34 72 90 291 117 462 21 130 24 376 7 452
-17 69 -114 296 -225 523 l-90 185 -101 100 c-56 55 -166 149 -243 207 -95 72
-171 139 -230 205 -391 432 -719 703 -1142 944 -350 199 -734 336 -1088 389
-132 19 -412 33 -499 24z m683 -275 c513 -56 1041 -278 1530 -644 77 -57 143
-109 147 -115 12 -20 -64 4 -240 77 -284 118 -313 123 -644 123 -430 0 -627
17 -959 80 -57 11 -137 20 -179 20 -42 0 -126 10 -186 22 -101 20 -116 21
-205 9 -54 -7 -216 -16 -362 -21 -146 -5 -276 -12 -290 -16 -21 -6 -17 1 25
46 193 201 530 363 855 409 41 6 86 13 100 15 57 8 318 5 408 -5z m-1411 -740
c-15 -12 -48 -49 -74 -82 -25 -34 -79 -93 -118 -132 -39 -38 -100 -108 -135
-155 -79 -106 -80 -108 -80 -88 0 25 97 147 199 249 53 53 123 126 156 163 33
36 65 66 70 66 6 0 -2 -10 -18 -21z m1116 -71 c-34 -35 -74 -78 -89 -96 -16
-18 -54 -50 -84 -70 -30 -21 -81 -70 -113 -110 -44 -54 -77 -83 -138 -119 -52
-30 -108 -76 -154 -124 -102 -107 -191 -285 -241 -484 -45 -179 -51 -256 -30
-366 11 -61 16 -144 16 -291 0 -299 26 -431 125 -627 66 -133 100 -226 114
-317 6 -39 21 -102 33 -140 19 -62 21 -87 19 -250 l-2 -182 31 -63 c71 -141
125 -221 187 -276 66 -58 70 -67 51 -119 l-12 -33 -49 42 c-107 89 -468 499
-454 514 5 5 122 -14 202 -33 19 -5 20 -1 14 93 -3 54 -4 118 -2 143 3 33 -5
75 -30 155 -19 61 -40 141 -47 178 -9 48 -36 116 -90 226 -131 264 -156 385
-144 701 5 143 3 211 -6 255 -21 100 -15 196 23 345 41 161 81 264 149 385 66
115 182 233 286 289 53 29 91 60 139 113 36 41 86 88 112 105 25 17 87 73 138
124 50 52 95 94 99 94 4 0 -20 -28 -53 -62z m2001 -158 c33 -14 61 -31 64 -37
2 -7 -21 -1 -55 15 -51 23 -73 27 -178 30 -66 2 -170 -1 -229 -7 -112 -11
-144 -23 -211 -78 -16 -13 -66 -48 -110 -77 -177 -115 -307 -211 -334 -245
-68 -87 -231 -430 -284 -597 -75 -236 -89 -758 -27 -982 34 -124 125 -285 261
-463 111 -146 157 -173 354 -204 151 -25 174 -33 95 -34 -83 -1 -196 14 -273
36 -51 14 -73 28 -134 86 -146 139 -305 375 -353 522 -42 133 -50 196 -50 415
0 318 34 537 116 742 75 190 217 454 277 516 37 38 283 209 392 272 22 13 55
37 74 53 66 57 118 66 356 64 178 -2 194 -4 249 -27z m1102 -1211 c31 -150
-13 -288 -150 -472 -36 -49 -66 -97 -66 -107 0 -27 -17 -34 -25 -10 -15 46 15
118 103 245 97 140 107 171 107 312 0 67 3 119 8 114 4 -4 14 -41 23 -82z
m-1063 -33 c123 -101 209 -189 266 -275 74 -108 112 -229 96 -301 -8 -38 -17
-30 -34 30 -17 59 -121 259 -176 335 -24 34 -94 114 -157 178 -63 64 -110 117
-105 117 5 0 55 -38 110 -84z m-1165 -510 c0 -105 13 -135 82 -195 51 -45 62
-60 75 -109 9 -31 34 -103 56 -158 22 -57 39 -119 39 -141 0 -53 23 -126 54
-174 34 -51 13 -52 -36 -1 -45 45 -88 135 -88 182 0 19 -13 76 -29 125 -16 50
-35 116 -41 149 -10 51 -19 65 -65 110 -70 68 -85 120 -69 240 10 71 23 55 22
-28z m2293 -107 c-12 -211 -44 -308 -154 -467 -92 -133 -220 -230 -332 -251
-33 -6 -58 -21 -99 -59 -31 -28 -76 -58 -102 -68 -40 -15 -51 -16 -88 -4 -22
7 -60 12 -83 11 -24 0 -82 -2 -130 -3 -81 -3 -92 -1 -140 26 -68 37 -69 54 -2
19 65 -34 141 -41 220 -19 57 16 64 16 114 1 71 -23 108 -10 188 65 46 42 73
59 102 64 104 19 227 116 309 243 104 161 137 253 170 481 15 97 23 128 32
120 2 -2 -1 -74 -5 -159z m-305 7 c100 -47 150 -143 142 -275 -13 -213 -214
-385 -397 -341 -134 32 -210 158 -189 313 12 89 49 160 117 227 100 98 220
126 327 76z m-1090 -162 c-20 -80 -36 -163 -36 -185 0 -91 64 -309 90 -309 6
0 9 -4 6 -9 -10 -16 -45 0 -75 34 -59 67 -93 216 -72 313 15 73 115 340 119
320 2 -10 -13 -83 -32 -164z m267 -64 c-4 -45 -2 -79 7 -99 7 -17 49 -66 94
-110 44 -43 93 -93 107 -110 25 -29 30 -31 98 -31 39 0 71 -4 71 -10 0 -15
-51 -37 -100 -44 -60 -9 -106 15 -145 75 -16 25 -54 72 -83 104 -74 81 -85
106 -80 179 5 56 21 116 32 116 3 0 2 -31 -1 -70z"/>
<path d="M4992 2579 c-159 -79 -201 -310 -74 -407 27 -20 49 -27 97 -30 35 -2
71 1 81 6 15 9 11 10 -18 5 -117 -18 -202 58 -201 182 1 71 20 121 70 176 46
51 83 70 153 79 l55 7 -60 2 c-43 1 -72 -5 -103 -20z"/>
<path d="M5046 2451 c-69 -45 -90 -148 -41 -196 49 -50 145 -23 179 50 51 107
-44 208 -138 146z"/>
</g>
</svg>
